<?xml version="1.0" encoding="UTF-8" standalone="no"?>
<!-- Created with Inkscape (http://www.inkscape.org/) -->

<svg
   xmlns:dc="http://purl.org/dc/elements/1.1/"
   xmlns:cc="http://creativecommons.org/ns#"
   xmlns:rdf="http://www.w3.org/1999/02/22-rdf-syntax-ns#"
   xmlns:svg="http://www.w3.org/2000/svg"
   xmlns="http://www.w3.org/2000/svg"
   xmlns:sodipodi="http://sodipodi.sourceforge.net/DTD/sodipodi-0.dtd"
   xmlns:inkscape="http://www.inkscape.org/namespaces/inkscape"
   width="32"
   height="32"
   viewBox="0 0 31.999999 31.999995"
   id="svg4275"
   version="1.1"
   inkscape:version="0.91 r13725"
   sodipodi:docname="bird.svg">
  <defs
     id="defs4277" />
  <sodipodi:namedview
     id="base"
     pagecolor="#ffffff"
     bordercolor="#666666"
     borderopacity="1.0"
     inkscape:pageopacity="0.0"
     inkscape:pageshadow="2"
     inkscape:zoom="3.959798"
     inkscape:cx="45.091927"
     inkscape:cy="19.562286"
     inkscape:document-units="px"
     inkscape:current-layer="layer1"
     showgrid="false"
     fit-margin-top="0"
     fit-margin-left="0"
     fit-margin-right="0"
     fit-margin-bottom="0"
     inkscape:window-width="1241"
     inkscape:window-height="1000"
     inkscape:window-x="39"
     inkscape:window-y="24"
     inkscape:window-maximized="1"
     units="px" />
  <metadata
     id="metadata4280">
    <rdf:RDF>
      <cc:Work
         rdf:about="">
        <dc:format>image/svg+xml</dc:format>
        <dc:type
           rdf:resource="http://purl.org/dc/dcmitype/StillImage" />
        <dc:title></dc:title>
      </cc:Work>
    </rdf:RDF>
  </metadata>
  <g
     inkscape:label="Layer 1"
     inkscape:groupmode="layer"
     id="layer1"
     transform="translate(-17.425523,-586.65252)">
    <path
       style="opacity:1;fill:#ffffff;fill-opacity:1;fill-rule:nonzero;stroke:none;stroke-width:4.4000001;stroke-miterlimit:4;stroke-dasharray:none;stroke-dashoffset:0;stroke-opacity:1"
       d="m 48.560353,594.62468 c -0.103317,0.0488 -0.902467,0.34194 -1.912816,0.6994 -3.351126,1.18558 -5.299604,2.05207 -6.957599,3.0948 -1.647359,1.03604 -1.992494,1.43021 -3.48547,3.98237 -1.463968,2.50258 -2.38063,3.8037 -2.846592,4.04002 -0.106074,0.0538 -0.3504,0.1206 -0.543115,0.14864 -0.192713,0.028 -0.535666,0.11468 -0.761793,0.19247 -0.70212,0.24156 -0.881866,0.20518 -1.558838,-0.31586 -1.671685,-1.28664 -2.448945,-1.74638 -4.047163,-2.39495 -1.392843,-0.56523 -2.683189,-0.97764 -3.826109,-1.22297 -0.893464,-0.19177 -1.039821,-0.20264 -2.70081,-0.19437 -1.348055,0.007 -1.837055,0.0345 -2.103858,0.11957 l -0.331588,0.10577 c -0.02165,0.14981 -0.04134,0.29989 -0.05908,0.45022 0.09875,-0.007 0.568355,0.0641 1.13435,0.17437 1.519946,0.29597 1.864718,0.34468 3.38828,0.4807 3.149383,0.28119 3.897347,0.558 6.115293,2.26346 0.89246,0.68625 1.693471,1.42159 1.987136,1.82468 l 0.206289,0.28347 -0.14483,0.20438 c -0.116647,0.16382 -0.143011,0.30947 -0.133399,0.74083 0.0066,0.29541 -0.01466,0.69885 -0.04716,0.89661 -0.05512,0.33533 -0.04998,0.35597 0.07956,0.30348 0.07641,-0.0309 0.448109,-0.15437 0.82563,-0.27393 l 0.686517,-0.21726 0.464507,0.12578 c 0.656341,0.17766 1.522821,0.11715 2.153883,-0.15055 0.931767,-0.39526 1.255215,-0.35185 1.919961,0.25727 0.262538,0.24057 0.526636,0.43735 0.58647,0.43735 0.05984,0 0.304756,-0.14459 0.544545,-0.32111 0.239786,-0.17651 0.585159,-0.38669 0.76751,-0.46736 0.203942,-0.0902 0.384552,-0.23725 0.468794,-0.38161 0.07541,-0.12922 0.284624,-0.31022 0.465936,-0.40305 0.181116,-0.0928 0.411531,-0.25797 0.51215,-0.36685 0.100619,-0.10887 0.322992,-0.29465 0.494044,-0.41305 0.171053,-0.1184 0.3111,-0.26314 0.3111,-0.32158 0,-0.1523 -0.442442,-0.13679 -1.04907,0.0366 -0.766139,0.2191 -1.840635,0.32401 -2.35112,0.22964 -0.69504,-0.12849 -1.125361,-0.45089 -0.733207,-0.54931 0.373129,-0.0937 0.789079,-0.61819 1.129108,-1.42401 0.478402,-1.13373 1.608381,-2.76809 2.93902,-4.25059 1.088208,-1.21241 2.447367,-2.29498 4.602192,-3.66604 0.690168,-0.43914 4.48358,-2.44862 4.67651,-2.47832 -0.269308,-0.43907 -0.557987,-0.86588 -0.865172,-1.27919 z"
       id="path4259"
       inkscape:connector-curvature="0"
       sodipodi:nodetypes="csssssssssscccssscccscscccsssssssssssssssscc" />
  </g>
</svg>
