<?xml version="1.0" encoding="UTF-8" standalone="no"?>
<!-- Created with Inkscape (http://www.inkscape.org/) -->

<svg
   xmlns:dc="http://purl.org/dc/elements/1.1/"
   xmlns:cc="http://creativecommons.org/ns#"
   xmlns:rdf="http://www.w3.org/1999/02/22-rdf-syntax-ns#"
   xmlns:svg="http://www.w3.org/2000/svg"
   xmlns="http://www.w3.org/2000/svg"
   xmlns:sodipodi="http://sodipodi.sourceforge.net/DTD/sodipodi-0.dtd"
   xmlns:inkscape="http://www.inkscape.org/namespaces/inkscape"
   width="9.0311098mm"
   height="9.0311117mm"
   viewBox="0 0 31.999995 32.000002"
   id="svg4222"
   version="1.1"
   inkscape:version="0.91 r13725"
   sodipodi:docname="bird.svg">
  <defs
     id="defs4224" />
  <sodipodi:namedview
     id="base"
     pagecolor="#ffffff"
     bordercolor="#666666"
     borderopacity="1.0"
     inkscape:pageopacity="0.0"
     inkscape:pageshadow="2"
     inkscape:zoom="3.959798"
     inkscape:cx="49.557743"
     inkscape:cy="52.015358"
     inkscape:document-units="px"
     inkscape:current-layer="layer1"
     showgrid="false"
     fit-margin-top="0"
     fit-margin-left="0"
     fit-margin-right="0"
     fit-margin-bottom="0"
     inkscape:window-width="1241"
     inkscape:window-height="1000"
     inkscape:window-x="39"
     inkscape:window-y="24"
     inkscape:window-maximized="1" />
  <metadata
     id="metadata4227">
    <rdf:RDF>
      <cc:Work
         rdf:about="">
        <dc:format>image/svg+xml</dc:format>
        <dc:type
           rdf:resource="http://purl.org/dc/dcmitype/StillImage" />
        <dc:title></dc:title>
      </cc:Work>
    </rdf:RDF>
  </metadata>
  <g
     inkscape:label="Layer 1"
     inkscape:groupmode="layer"
     id="layer1"
     transform="translate(-322.04724,-544.1811)">
    <circle
       style="opacity:1;fill:#000000;fill-opacity:1;fill-rule:nonzero;stroke:none;stroke-width:4.4000001;stroke-miterlimit:4;stroke-dasharray:none;stroke-dashoffset:0;stroke-opacity:1"
       id="path4316"
       cx="338.04724"
       cy="-560.18109"
       r="15.999995"
       transform="scale(1,-1)" />
    <g
       id="g3407"
       transform="matrix(0.22551045,0,0,0.22484396,311.94146,460.40952)"
       style="fill:#ffffff;fill-opacity:1">
      <path
         id="path3351"
         d="m 111.40377,514.74661 c -9.49134,-0.5481 -18.098682,-2.81226 -26.700002,-7.02343 -19.10659,-9.35452 -32.97463,-26.44609 -37.92795,-46.74403 -1.54252,-6.321 -1.95231,-9.88303 -1.96267,-17.06018 -0.005,-3.57494 0.0736,-6.58297 0.17514,-6.68453 0.10149,-0.10156 2.26149,0.2198 4.8,0.71411 6.23119,1.21339 7.64546,1.41413 13.89147,1.97179 12.91124,1.15276 15.97738,2.28764 25.07009,9.27936 3.65874,2.81334 6.94181,5.82852 8.14572,7.48106 l 0.84648,1.16192 -0.59544,0.83621 c -0.47821,0.67158 -0.58578,1.2697 -0.54637,3.03808 0.027,1.21103 -0.06,2.86525 -0.19327,3.67606 -0.22596,1.3747 -0.20388,1.45863 0.32724,1.24348 0.31326,-0.1269 1.83585,-0.63178 3.383542,-1.12196 l 2.81399,-0.89124 1.9043,0.51547 c 2.69074,0.72835 6.24333,0.47989 8.83044,-0.61759 3.81988,-1.62044 5.14718,-1.44265 7.87238,1.0545 1.0763,0.98623 2.1576,1.79315 2.4029,1.79315 0.2453,0 1.2503,-0.5921 2.23334,-1.31576 0.98303,-0.72367 2.39898,-1.58632 3.14655,-1.91701 0.83608,-0.36984 1.57531,-0.97156 1.92067,-1.56339 0.30914,-0.52976 1.16814,-1.27275 1.91145,-1.6533 0.7425,-0.38013 1.6875,-1.05636 2.1,-1.50272 0.4125,-0.44636 1.32375,-1.20871 2.025,-1.6941 0.70125,-0.4854 1.275,-1.07856 1.275,-1.31814 0,-0.62439 -1.813,-0.5611 -4.29994,0.1501 -3.14087,0.89821 -7.54626,1.32862 -9.63906,0.94174 -2.84939,-0.52674 -4.61357,-1.8484 -3.00589,-2.2519 1.52968,-0.38392 3.23539,-2.53524 4.62938,-5.83876 1.96126,-4.64787 6.59382,-11.3475 12.04892,-17.42519 4.46123,-4.97041 10.03265,-9.40872 18.86659,-15.02953 2.85016,-1.81348 18.64468,-10.17975 19.2215,-10.18152 0.26681,-9e-4 2.52695,4.0736 3.82725,6.89948 2.81606,6.12005 4.85826,12.92828 5.93922,19.8 0.75387,4.79237 0.76365,15.54798 0.0185,20.4 -2.46988,16.08366 -9.7327,30.20654 -21.16657,41.15936 -12.0683,11.56055 -28.16082,18.77995 -43.68994,19.6001 -1.65,0.0871 -3.675,0.20009 -4.5,0.25098 -0.825,0.0509 -3.255,-0.009 -5.4,-0.13267 z"
         style="fill:#ffffff;fill-opacity:1"
         inkscape:connector-curvature="0" />
      <path
         id="path3347"
         d="m 98.654558,450.49433 c -6.85326,-5.27469 -10.03988,-7.1606 -16.59195,-9.81948 -5.71011,-2.3172 -11.00036,-4.00822 -15.68588,-5.01394 -3.66286,-0.78622 -4.26355,-0.82938 -11.07296,-0.79546 -5.5265,0.0275 -7.53121,0.14153 -8.625,0.49051 l -1.425,0.45465 0,-0.81818 c 0,-1.53031 1.19313,-7.45126 2.22025,-11.01802 11.15135,-38.72427 52.31654,-60.44824 90.543222,-47.78209 9.42353,3.12242 17.44657,7.76026 25.28653,14.61726 3.43742,3.00645 10.09826,10.61149 9.66952,11.04023 -0.084,0.084 -3.72773,1.41754 -8.09715,2.96338 -13.73833,4.86046 -21.72527,8.41346 -28.5224,12.68823 -6.75354,4.24736 -8.16818,5.86375 -14.28879,16.32659 -6.0017,10.25959 -9.76027,15.59361 -11.67053,16.56242 -0.43486,0.22054 -1.43705,0.49506 -2.22711,0.61004 -0.79005,0.11498 -2.19493,0.47001 -3.12196,0.78896 -2.87842,0.99031 -3.61547,0.84095 -6.390792,-1.2951 z"
         style="fill:#ffffff;fill-opacity:1"
         inkscape:connector-curvature="0" />
    </g>
  </g>
</svg>
