<?xml version="1.0" encoding="UTF-8" standalone="no"?>
<!-- Created with Inkscape (http://www.inkscape.org/) -->

<svg
   xmlns:dc="http://purl.org/dc/elements/1.1/"
   xmlns:cc="http://creativecommons.org/ns#"
   xmlns:rdf="http://www.w3.org/1999/02/22-rdf-syntax-ns#"
   xmlns:svg="http://www.w3.org/2000/svg"
   xmlns="http://www.w3.org/2000/svg"
   xmlns:xlink="http://www.w3.org/1999/xlink"
   xmlns:sodipodi="http://sodipodi.sourceforge.net/DTD/sodipodi-0.dtd"
   xmlns:inkscape="http://www.inkscape.org/namespaces/inkscape"
   width="310.74536mm"
   height="310.74539mm"
   viewBox="0 0 1101.0662 1101.0663"
   id="svg2"
   version="1.1"
   inkscape:version="0.91 r13725"
   sodipodi:docname="checkout.svg">
  <defs
     id="defs4">
    <linearGradient
       inkscape:collect="always"
       id="linearGradient4141">
      <stop
         style="stop-color:#000000;stop-opacity:0"
         offset="0"
         id="stop4143" />
      <stop
         id="stop4149"
         offset="0.49948829"
         style="stop-color:#ffffff;stop-opacity:1" />
      <stop
         style="stop-color:#000000;stop-opacity:0"
         offset="1"
         id="stop4145" />
    </linearGradient>
    <linearGradient
       inkscape:collect="always"
       xlink:href="#linearGradient4141"
       id="linearGradient4147"
       x1="418.20316"
       y1="1391.7733"
       x2="1074.8021"
       y2="577.59052"
       gradientUnits="userSpaceOnUse" />
    <clipPath
       clipPathUnits="userSpaceOnUse"
       id="clipPath4496">
      <circle
         style="fill:#000000;fill-opacity:1"
         id="circle4498"
         cx="272.74115"
         cy="589.71228"
         r="550.53314" />
    </clipPath>
    <filter
       inkscape:collect="always"
       style="color-interpolation-filters:sRGB"
       id="filter4640"
       x="-0.21990165"
       width="1.4398032"
       y="-0.23671764"
       height="1.4734353">
      <feGaussianBlur
         inkscape:collect="always"
         stdDeviation="101.6264"
         id="feGaussianBlur4642" />
    </filter>
  </defs>
  <sodipodi:namedview
     id="base"
     pagecolor="#ffffff"
     bordercolor="#666666"
     borderopacity="1.0"
     inkscape:pageopacity="0.0"
     inkscape:pageshadow="2"
     inkscape:zoom="0.49497475"
     inkscape:cx="790.45044"
     inkscape:cy="508.63259"
     inkscape:document-units="px"
     inkscape:current-layer="layer2"
     showgrid="false"
     showborder="false"
     inkscape:window-width="1241"
     inkscape:window-height="1000"
     inkscape:window-x="39"
     inkscape:window-y="24"
     inkscape:window-maximized="1"
     fit-margin-top="0"
     fit-margin-left="0"
     fit-margin-right="0"
     fit-margin-bottom="0" />
  <metadata
     id="metadata7">
    <rdf:RDF>
      <cc:Work
         rdf:about="">
        <dc:format>image/svg+xml</dc:format>
        <dc:type
           rdf:resource="http://purl.org/dc/dcmitype/StillImage" />
        <dc:title></dc:title>
      </cc:Work>
    </rdf:RDF>
  </metadata>
  <g
     inkscape:groupmode="layer"
     id="layer2"
     inkscape:label="Layer 4"
     style="display:inline">
    <rect
       style="opacity:1;fill:#000000;fill-opacity:1;fill-rule:nonzero;stroke:none;stroke-width:4.4000001;stroke-miterlimit:4;stroke-dasharray:none;stroke-dashoffset:0;stroke-opacity:1"
       id="rect3352"
       width="1458.6091"
       height="583.4436"
       x="-178.77151"
       y="258.81131"
       inkscape:export-xdpi="61.70261"
       inkscape:export-ydpi="61.70261" />
  </g>
  <g
     inkscape:label="Layer 1"
     inkscape:groupmode="layer"
     id="layer1"
     style="display:inline"
     transform="translate(178.4859,24.352051)"
     sodipodi:insensitive="true">
    <g
       id="g4334">
      <circle
         r="550.53314"
         cy="526.18109"
         cx="372.04724"
         id="path4136"
         style="fill:#000000;fill-opacity:1" />
      <path
         transform="translate(99.306094,-63.531178)"
         clip-path="url(#clipPath4496)"
         sodipodi:nodetypes="cccc"
         inkscape:connector-curvature="0"
         id="rect4138"
         d="M 179.80715,474.55495 1288.9546,929.12359 642.45702,1504.9106 Z"
         style="opacity:0.3;fill:url(#linearGradient4147);fill-opacity:1;filter:url(#filter4640)" />
      <g
         id="g4293"
         style="display:inline"
         transform="matrix(0.90317083,0.42928131,-0.42928131,0.90317083,261.90465,-108.76328)">
        <circle
           style="opacity:1;fill:#ffffff;fill-opacity:1;stroke:#000000;stroke-width:30;stroke-miterlimit:4;stroke-dasharray:none"
           id="path4363"
           cx="372.04724"
           cy="526.18109"
           r="181.82745" />
        <circle
           style="opacity:1;fill:none;fill-opacity:1;stroke:#000000;stroke-width:4;stroke-miterlimit:4;stroke-dasharray:none"
           id="path4374"
           cx="372.04724"
           cy="526.18109"
           r="365.67523" />
        <circle
           r="385.76837"
           cy="526.18109"
           cx="372.04724"
           id="circle4376"
           style="opacity:1;fill:none;fill-opacity:1;stroke:#000000;stroke-width:4;stroke-miterlimit:4;stroke-dasharray:none" />
        <circle
           style="opacity:1;fill:none;fill-opacity:1;stroke:#000000;stroke-width:3.84726095;stroke-miterlimit:4;stroke-dasharray:none"
           id="circle4378"
           cx="372.04724"
           cy="526.18109"
           r="456.07187" />
        <circle
           r="508.37918"
           cy="526.18109"
           cx="372.04724"
           id="circle4380"
           style="opacity:1;fill:none;fill-opacity:1;stroke:#000000;stroke-width:4;stroke-miterlimit:4;stroke-dasharray:none" />
        <circle
           style="opacity:1;fill:none;fill-opacity:1;stroke:#000000;stroke-width:4;stroke-miterlimit:4;stroke-dasharray:none"
           id="circle4382"
           cx="372.04724"
           cy="526.18109"
           r="305.37299" />
      </g>
    </g>
  </g>
  <g
     inkscape:groupmode="layer"
     id="layer4"
     inkscape:label="Layer 5"
     style="display:inline"
     sodipodi:insensitive="true">
    <g
       style="display:inline"
       transform="matrix(2.0564398,0,0,-2.0564398,442.34479,665.64087)"
       inkscape:label="ink_ext_XXXXXX"
       id="g10">
      <g
         transform="scale(0.1,0.1)"
         id="g12">
        <path
           id="path14"
           style="fill:#100f0d;fill-opacity:1;fill-rule:nonzero;stroke:none"
           d="m 54.0977,834.359 c 1.039,-0.418 2.8125,-0.738 5.3164,-0.941 2.5,-0.211 5.1015,-0.313 7.8164,-0.313 8.9609,0 16.2617,2.61 21.8867,7.817 5.6289,5.211 8.4414,13.137 8.4414,23.766 0,6.253 -0.8906,11.519 -2.6563,15.792 -1.7734,4.27 -4.2226,7.708 -7.3476,10.321 -3.125,2.601 -6.7774,4.426 -10.9453,5.469 -4.1719,1.039 -8.5469,1.562 -13.1328,1.562 -1.25,0 -2.711,0 -4.375,0 -1.6758,0 -3.3399,-0.105 -5.0039,-0.312 l 0,-63.161 z M 0,940.051 c 4.79297,0.625 12.1445,1.508 22.0469,2.656 9.8984,1.141 22.3594,1.719 37.3672,1.719 11.0468,0 22.1953,-1.047 33.457,-3.125 11.2539,-2.09 21.4139,-5.996 30.4839,-11.731 9.071,-5.73 16.418,-13.808 22.043,-24.234 5.633,-10.422 8.446,-23.973 8.446,-40.648 0,-14.805 -2.242,-27.098 -6.727,-36.895 -4.48,-9.801 -10.422,-17.617 -17.82,-23.453 -7.402,-5.84 -15.844,-10.004 -25.328,-12.508 -9.4885,-2.5 -19.2268,-3.75 -29.2346,-3.75 -3.961,0 -7.9727,0.156 -12.0391,0.469 -4.0625,0.312 -6.9336,0.672 -8.5976,1.094 l 0,-72.86 c -5.4258,-1.039 -10.3164,-1.765 -14.6993,-2.183 -4.375,-0.418 -8.4414,-0.625 -12.1914,-0.625 -7.3007,0 -16.3672,0.933 -27.207,2.808 l 0,223.266"
           inkscape:connector-curvature="0" />
        <path
           id="path16"
           style="fill:#100f0d;fill-opacity:1;fill-rule:nonzero;stroke:none"
           d="m 241.711,881.574 -20.949,-80.363 c 3.539,-1.047 6.875,-1.875 10.004,-2.5 3.125,-0.625 6.359,-0.938 9.695,-0.938 3.543,0 7.035,0.258 10.473,0.782 3.441,0.515 7.035,1.3 10.789,2.343 l -20.012,80.676 z m -27.828,58.789 c 5.414,0.625 10.472,1.141 15.164,1.563 4.687,0.414 9.43,0.625 14.223,0.625 3.96,0 8.289,-0.211 12.98,-0.625 4.691,-0.422 10.055,-0.938 16.105,-1.563 l 69.098,-223.578 c -11.879,-1.875 -22.305,-2.808 -31.262,-2.808 -4.175,0 -8.339,0.207 -12.511,0.625 -4.168,0.418 -8.653,1.043 -13.446,1.875 l -11.879,43.461 c -5.839,-1.672 -11.414,-2.922 -16.73,-3.75 -5.316,-0.836 -10.582,-1.25 -15.789,-1.25 -4.801,0 -9.695,0.359 -14.699,1.093 -5,0.727 -10.215,1.821 -15.633,3.282 l -11.57,-42.836 c -4.797,-0.832 -9.172,-1.457 -13.133,-1.875 -3.961,-0.418 -7.821,-0.625 -11.571,-0.625 -3.753,0 -8.078,0.261 -12.976,0.781 -4.899,0.519 -10.371,1.297 -16.414,2.344 l 70.043,223.261"
           inkscape:connector-curvature="0" />
        <path
           id="path18"
           style="fill:#100f0d;fill-opacity:1;fill-rule:nonzero;stroke:none"
           d="m 502.809,769.633 c 6.875,-15.008 11.461,-30.438 13.754,-46.278 -6.043,-2.296 -11.676,-4.175 -16.883,-5.628 -5.211,-1.461 -10.215,-2.551 -15.012,-3.282 -4.797,-0.73 -9.535,-1.25 -14.223,-1.562 -4.691,-0.313 -9.543,-0.473 -14.543,-0.473 -17.718,0 -33.3,2.867 -46.746,8.602 -13.449,5.726 -24.703,13.699 -33.769,23.922 -9.071,10.207 -15.899,22.402 -20.485,36.582 -4.586,14.172 -6.875,29.597 -6.875,46.277 0,16.676 2.395,32.152 7.188,46.43 4.797,14.277 11.726,26.632 20.797,37.058 9.066,10.418 20.273,18.547 33.613,24.387 13.34,5.836 28.457,8.758 45.34,8.758 10.008,0 19.488,-0.735 28.453,-2.188 8.961,-1.461 18.969,-4.383 30.02,-8.758 -0.418,-8.546 -1.985,-16.835 -4.692,-24.855 -2.711,-8.027 -5.523,-15.066 -8.441,-21.109 -4.172,1.453 -7.977,2.703 -11.414,3.754 -3.442,1.039 -6.723,1.875 -9.848,2.5 -3.129,0.625 -6.254,1.093 -9.379,1.406 -3.133,0.312 -6.465,0.469 -10.012,0.469 -16.882,0 -29.964,-5.684 -39.242,-17.04 -9.277,-11.363 -13.91,-28.296 -13.91,-50.812 0,-44.199 18.551,-66.289 55.656,-66.289 6.668,0 12.977,0.625 18.918,1.875 5.942,1.25 13.184,3.332 21.735,6.254"
           inkscape:connector-curvature="0" />
        <path
           id="path20"
           style="fill:#100f0d;fill-opacity:1;fill-rule:nonzero;stroke:none"
           d="m 544.387,940.051 c 5.633,0.828 10.742,1.453 15.332,1.875 4.578,0.414 8.64,0.625 12.183,0.625 3.75,0 7.981,-0.211 12.668,-0.625 4.7,-0.422 9.739,-1.047 15.164,-1.875 l 0,-223.266 c -11.05,-1.875 -20.214,-2.808 -27.515,-2.808 -7.715,0 -16.992,0.933 -27.832,2.808 l 0,223.266"
           inkscape:connector-curvature="0" />
        <path
           id="path22"
           style="fill:#100f0d;fill-opacity:1;fill-rule:nonzero;stroke:none"
           d="m 637.258,940.676 131.953,0 c 0.84,-4.59 1.465,-8.863 1.875,-12.824 0.418,-3.961 0.625,-7.715 0.625,-11.254 0,-6.879 -0.832,-15.118 -2.5,-24.703 l -76.606,0 0,-38.149 60.356,0 c 1.875,-9.383 2.809,-17.512 2.809,-24.391 0,-7.089 -0.934,-15.324 -2.809,-24.703 l -60.356,0 0,-87.867 c -11.05,-1.875 -20.222,-2.808 -27.515,-2.808 -7.719,0 -16.992,0.933 -27.832,2.808 l 0,223.891"
           inkscape:connector-curvature="0" />
        <path
           id="path24"
           style="fill:#100f0d;fill-opacity:1;fill-rule:nonzero;stroke:none"
           d="m 796.73,940.051 c 5.625,0.828 10.731,1.453 15.313,1.875 4.59,0.414 8.648,0.625 12.203,0.625 3.75,0 7.973,-0.211 12.656,-0.625 4.692,-0.422 9.746,-1.047 15.168,-1.875 l 0,-223.266 c -11.047,-1.875 -20.222,-2.808 -27.507,-2.808 -7.715,0 -16.997,0.933 -27.833,2.808 l 0,223.266"
           inkscape:connector-curvature="0" />
        <path
           id="path26"
           style="fill:#100f0d;fill-opacity:1;fill-rule:nonzero;stroke:none"
           d="m 1038.43,769.633 c 6.87,-15.008 11.46,-30.438 13.76,-46.278 -6.05,-2.296 -11.67,-4.175 -16.89,-5.628 -5.21,-1.461 -10.21,-2.551 -15.01,-3.282 -4.79,-0.73 -9.54,-1.25 -14.23,-1.562 -4.68,-0.313 -9.529,-0.473 -14.529,-0.473 -17.722,0 -33.301,2.867 -46.758,8.602 -13.433,5.726 -24.695,13.699 -33.765,23.922 -9.067,10.207 -15.903,22.402 -20.481,36.582 -4.582,14.172 -6.875,29.597 -6.875,46.277 0,16.676 2.395,32.152 7.188,46.43 4.797,14.277 11.726,26.632 20.793,37.058 9.07,10.418 20.269,18.547 33.609,24.387 13.344,5.836 28.457,8.758 45.356,8.758 10.002,0 19.482,-0.735 28.442,-2.188 8.96,-1.461 18.98,-4.383 30.02,-8.758 -0.42,-8.546 -1.98,-16.835 -4.69,-24.855 -2.71,-8.027 -5.52,-15.066 -8.44,-21.109 -4.17,1.453 -7.97,2.703 -11.41,3.754 -3.45,1.039 -6.73,1.875 -9.85,2.5 -3.14,0.625 -6.26,1.093 -9.39,1.406 -3.12,0.312 -6.464,0.469 -9.999,0.469 -16.89,0 -29.968,-5.684 -39.246,-17.04 -9.277,-11.363 -13.918,-28.296 -13.918,-50.812 0,-44.199 18.559,-66.289 55.664,-66.289 6.659,0 12.969,0.625 18.919,1.875 5.95,1.25 13.18,3.332 21.73,6.254"
           inkscape:connector-curvature="0" />
        <path
           id="path28"
           style="fill:#100f0d;fill-opacity:1;fill-rule:nonzero;stroke:none"
           d="m 506.547,582.09 -20.945,-80.36 c 3.539,-1.046 6.875,-1.875 10.003,-2.5 3.125,-0.625 6.36,-0.941 9.692,-0.941 3.547,0 7.039,0.262 10.473,0.781 3.445,0.52 7.039,1.301 10.793,2.344 l -20.016,80.676 z m -27.824,58.789 c 5.414,0.625 10.472,1.144 15.164,1.562 4.687,0.414 9.429,0.625 14.222,0.625 3.961,0 8.286,-0.211 12.981,-0.625 4.691,-0.418 10.055,-0.937 16.105,-1.562 l 69.106,-223.574 c -11.887,-1.875 -22.309,-2.813 -31.274,-2.813 -4.175,0 -8.339,0.215 -12.507,0.625 -4.168,0.418 -8.653,1.043 -13.45,1.875 l -11.875,43.457 c -5.843,-1.66 -11.414,-2.91 -16.73,-3.75 -5.32,-0.832 -10.582,-1.25 -15.793,-1.25 -4.801,0 -9.692,0.371 -14.695,1.094 -5,0.734 -10.215,1.824 -15.637,3.281 l -11.567,-42.832 c -4.8,-0.832 -9.175,-1.457 -13.132,-1.875 -3.961,-0.41 -7.821,-0.625 -11.571,-0.625 -3.754,0 -8.082,0.266 -12.976,0.781 -4.899,0.528 -10.371,1.297 -16.418,2.344 l 70.047,223.262"
           inkscape:connector-curvature="0" />
        <path
           id="path30"
           style="fill:#100f0d;fill-opacity:1;fill-rule:nonzero;stroke:none"
           d="m 804.855,470.152 c 6.875,-15.015 11.461,-30.445 13.75,-46.285 -6.039,-2.285 -11.671,-4.172 -16.875,-5.625 -5.214,-1.465 -10.214,-2.547 -15.019,-3.281 -4.785,-0.723 -9.531,-1.25 -14.223,-1.563 -4.683,-0.312 -9.539,-0.468 -14.539,-0.468 -17.722,0 -33.301,2.871 -46.75,8.593 -13.445,5.735 -24.707,13.711 -33.765,23.926 -9.067,10.215 -15.903,22.403 -20.493,36.582 -4.578,14.176 -6.875,29.602 -6.875,46.282 0,16.671 2.407,32.152 7.192,46.429 4.805,14.278 11.734,26.629 20.801,37.055 9.058,10.422 20.269,18.551 33.613,24.391 13.34,5.835 28.457,8.753 45.34,8.753 10.008,0 19.48,-0.73 28.449,-2.187 8.965,-1.461 18.973,-4.379 30.019,-8.754 -0.414,-8.551 -1.972,-16.836 -4.687,-24.859 -2.719,-8.028 -5.527,-15.063 -8.438,-21.11 -4.179,1.457 -7.98,2.707 -11.417,3.754 -3.45,1.043 -6.727,1.875 -9.852,2.5 -3.125,0.625 -6.25,1.098 -9.375,1.41 -3.125,0.313 -6.469,0.465 -10.012,0.465 -16.886,0 -29.969,-5.68 -39.25,-17.039 -9.273,-11.363 -13.902,-28.297 -13.902,-50.808 0,-44.204 18.555,-66.29 55.664,-66.29 6.656,0 12.969,0.625 18.902,1.875 5.95,1.25 13.188,3.329 21.742,6.254"
           inkscape:connector-curvature="0" />
        <path
           id="path32"
           style="fill:#100f0d;fill-opacity:1;fill-rule:nonzero;stroke:none"
           d="m 356.293,31.0273 0,36.5118 21.758,0 0,-36.2305 c 0,-8.2344 4.113,-11.7383 9.871,-11.7383 5.754,0 9.871,3.2227 9.871,11.2695 l 0,36.6993 21.754,0 0,-36.0352 C 419.547,8.88672 406.84,0 387.738,0 368.633,0 356.293,9.08203 356.293,31.0273"
           inkscape:connector-curvature="0" />
        <path
           id="path34"
           style="fill:#100f0d;fill-opacity:1;fill-rule:nonzero;stroke:none"
           d="m 443.871,11.25 11.426,14.1016 c 6.949,-5.4883 14.898,-7.7618 22.394,-7.7618 3.836,0 5.485,1.043 5.485,2.8399 l 0,0.1836 c 0,1.8984 -2.016,2.9414 -8.867,4.3594 -14.348,3.0234 -26.965,7.2851 -26.965,21.2773 l 0,0.1953 c 0,12.5781 9.508,22.3242 27.148,22.3242 12.34,0 21.481,-3.0273 28.883,-9.082 L 492.953,44.7461 c -6.027,4.5312 -13.25,6.5234 -19.191,6.5234 -3.199,0 -4.664,-1.1328 -4.664,-2.7422 l 0,-0.1875 c 0,-1.7968 1.738,-2.9296 8.5,-4.2578 16.363,-3.125 27.328,-8.0468 27.328,-21.3867 l 0,-0.1836 c 0,-13.90623 -11.059,-22.4218562 -28.242,-22.4218562 -12.977,0 -24.676,3.7773462 -32.813,11.1601562"
           inkscape:connector-curvature="0" />
        <path
           id="path36"
           style="fill:#100f0d;fill-opacity:1;fill-rule:nonzero;stroke:none"
           d="m 569.934,25.918 -5.852,16.0742 -5.852,-16.0742 11.704,0 z m -16.274,42.0898 21.211,0 26.953,-66.68749 -23.211,0 -3.379,8.89449 -22.39,0 -3.293,-8.89449 -22.852,0 26.961,66.68749"
           inkscape:connector-curvature="0" />
        <path
           id="path38"
           style="fill:#100f0d;fill-opacity:1;fill-rule:nonzero;stroke:none"
           d="m 352.418,373.992 c 0,15.012 -13.719,40.305 -21.867,40.305 -1.274,0 -2.992,-0.859 -3.856,-2.996 C 272.258,294.277 206.25,211.543 139.371,157.527 c 9.008,66.457 42.016,175.325 73.734,252.063 0.872,2.558 1.282,4.707 1.282,7.285 0,13.289 -13.707,25.293 -30.008,25.293 -50.578,0 -137.1681,-47.156 -177.88681,-78.887 -2.57422,-2.129 -3.86719,-4.707 -3.86719,-7.273 0,-6.008 6.00781,-12.442 12.4336,-12.442 2.1484,0 4.2852,0.86 6.4297,2.157 53.1523,35.996 93.4527,52.715 138.4607,64.297 -34.297,-86.602 -67.2927,-213.477 -67.2927,-251.2 0,-23.578 14.9887,-34.297 29.9887,-34.297 45.027,0 148.328,102.45 216.054,220.34 13.293,23.575 13.719,26.133 13.719,29.129"
           inkscape:connector-curvature="0" />
        <path
           id="path40"
           style="fill:#100f0d;fill-opacity:1;fill-rule:nonzero;stroke:none"
           d="m 365.266,273.273 c 18.004,0 38.574,21.434 38.574,40.731 0,13.281 -9.848,21.855 -21.434,21.855 -21,0 -38.148,-24.863 -38.148,-39.863 0,-14.148 8.586,-22.723 21.008,-22.723"
           inkscape:connector-curvature="0" />
        <path
           id="path42"
           style="fill:#100f0d;fill-opacity:1;fill-rule:nonzero;stroke:none"
           d="m 961.504,438.301 c -12,0 -53.152,-60.442 -101.602,-149.168 -11.242,-20.793 -26.972,-50.383 -40.031,-78.215 -22.012,-16.426 -55.176,-40.234 -87.266,-58.535 3.86,9.433 8.149,19.297 11.575,29.148 8.144,22.727 17.566,42.024 17.566,48.449 0,8.575 -14.566,11.993 -22.703,11.993 -7.297,0 -13.301,-2.578 -16.301,-8.133 -15.418,-28.723 -44.137,-62.16 -79.734,-76.313 9.875,20.578 28.301,56.164 34.305,68.586 1.292,2.578 1.292,3.438 1.292,4.727 0,6.848 -13.3,13.281 -25.722,13.281 -7.297,0 -14.57,-2.148 -18.012,-8.144 -5.047,-8.34 -9.5,-16.094 -13.609,-23.497 -19.739,-14.699 -52.356,-38.171 -84.114,-48.953 5.555,21.434 21.438,42.442 21.438,61.317 0,8.574 -9.438,17.129 -17.57,17.129 -16.309,0 -56.161,-32.149 -87.879,-63.868 6.847,12.872 20.996,35.586 25.285,44.583 2.996,6.003 2.996,6.863 2.996,7.714 0,7.286 -13.273,13.719 -25.715,13.719 -7.297,0 -14.582,-2.148 -18,-8.144 -4.859,-8.016 -9.406,-15.899 -13.601,-23.489 -19.727,-14.683 -52.36,-38.172 -84.125,-48.961 5.57,21.434 24.437,55.731 24.437,66.453 0,8.575 -14.574,11.993 -22.726,11.993 -7.274,0 -12.848,-2.989 -16.293,-8.133 -6.848,-9.856 -14.133,-27.871 -19.282,-38.586 -6.008,-12.422 -15.863,-33.867 -15.863,-46.301 0,-12.859 6.004,-18.855 16.715,-18.855 22.394,0 57.219,16.992 97.605,43.125 -5.664,-13.243 -8.886,-23.711 -8.886,-29.825 0,-7.304 15.019,-15.019 22.296,-15.019 12,0 53.157,45.449 85.301,66.875 -4.277,-11.57 -15.847,-33.867 -15.847,-46.301 0,-12.859 5.996,-18.855 16.707,-18.855 22.461,0 57.429,17.109 97.988,43.379 -3.836,-9.715 -5.84,-17.422 -5.84,-22.793 0,-12.871 2.566,-22.305 24.441,-22.305 20.137,0 45.43,12.441 74.583,41.582 L 678.605,122.383 C 649.016,91.9453 616.438,45.2266 616.438,19.5117 c 0,-6.0039 8.152,-12.87107 13.718,-12.87107 18.86,0 54.446,45.44917 84.864,107.16837 30.07,18.261 60.632,39.082 88.543,58.886 -4.625,-12.547 -7.516,-23.164 -7.516,-30.168 0,-6.433 3.855,-15.007 14.566,-15.007 29.153,0 30,15.429 30,19.296 0,3.868 0,12.43 2.578,23.575 2.153,8.144 18,43.3 26.157,57.441 36.011,46.731 105.437,162.891 105.437,188.606 0,9.011 -5.137,21.863 -13.281,21.863"
           inkscape:connector-curvature="0" />
        <path
           id="path44"
           style="fill:#100f0d;fill-opacity:1;fill-rule:nonzero;stroke:none"
           d="m 226.391,416.563 c 0,-0.071 -0.012,-0.137 -0.012,-0.196 l 89.016,0 c 2.781,6.035 8.496,9.91 14.863,9.91 6.297,0 12.203,-3.992 17.301,-9.91 l 10.156,0 c 1.875,8.75 2.812,16.992 2.812,24.707 0,7.078 -0.937,15 -2.812,23.758 l -78.485,0 0,44.402 60.348,0 c 1.875,8.965 2.817,17.094 2.817,24.387 0,7.086 -0.942,15.219 -2.817,24.391 l -60.348,0 0,34.398 76.61,0 c 1.664,9.586 2.5,17.824 2.5,24.703 0,3.539 -0.211,7.297 -0.625,11.254 -0.418,3.961 -1.043,8.235 -1.875,12.824 l -131.957,0 0,-212.605 c 1.512,-3.82 2.508,-7.824 2.508,-12.023"
           inkscape:connector-curvature="0" />
        <path
           id="path46"
           style="fill:#100f0d;fill-opacity:1;fill-rule:nonzero;stroke:none"
           d="m 1034.52,642.441 c -4.69,0.414 -8.9,0.625 -12.66,0.625 -3.75,0 -7.88,-0.211 -12.36,-0.625 -4.48,-0.418 -9.527,-1.043 -15.152,-1.875 l 0,-82.867 -55.356,0 0,82.867 c -5.429,0.832 -10.469,1.457 -15.164,1.875 -4.687,0.414 -8.918,0.625 -12.668,0.625 -3.543,0 -7.605,-0.211 -12.183,-0.625 -4.59,-0.418 -9.7,-1.043 -15.332,-1.875 l 0,-223.261 c 10.835,-1.875 20.117,-2.813 27.832,-2.813 3.125,0 6.648,0.203 10.449,0.547 6.758,9.199 12.383,16.008 17.066,21.016 l 0,72.554 55.356,0 0,-91.304 c 10.832,-1.875 20.102,-2.813 27.822,-2.813 7.29,0 16.46,0.938 27.52,2.813 l 0,223.261 c -5.42,0.832 -10.48,1.457 -15.17,1.875"
           inkscape:connector-curvature="0" />
        <path
           id="path48"
           style="fill:#100f0d;fill-opacity:1;fill-rule:nonzero;stroke:none"
           d="m 54.0977,510.801 12.8203,0 c 10.4218,0 18.9179,-1.934 25.4843,-5.785 6.5625,-3.864 9.8477,-10.786 9.8477,-20.797 0,-5.211 -0.988,-9.535 -2.9687,-12.973 -1.9883,-3.441 -4.6407,-6.152 -7.9727,-8.133 -3.3398,-1.98 -7.0352,-3.386 -11.1016,-4.226 -4.0625,-0.828 -8.082,-1.25 -12.039,-1.25 -3.5508,0 -6.4102,0.058 -8.5977,0.156 -2.1914,0.109 -4.0195,0.266 -5.4726,0.469 l 0,52.539 z m 0,90.679 c 1.25,0.204 2.7578,0.313 4.5351,0.313 1.7695,0 3.2813,0 4.5313,0 3.125,0 6.3593,-0.313 9.6914,-0.938 3.3359,-0.625 6.3593,-1.777 9.0664,-3.445 2.7109,-1.668 4.9531,-3.957 6.7265,-6.879 1.7657,-2.918 2.6602,-6.562 2.6602,-10.941 0,-8.965 -2.5039,-15.274 -7.5039,-18.914 -5.0078,-3.653 -11.9922,-5.477 -20.9531,-5.477 l -8.7539,0 0,46.281 z m 3.6757,-188.824 c 30.7188,16.875 65.0236,31.985 94.6756,39.082 3.766,8.321 5.774,18.352 5.774,30.293 0,8.129 -1.043,15.324 -3.129,21.578 -2.086,6.254 -4.844,11.618 -8.285,16.102 -3.442,4.48 -7.407,8.234 -11.883,11.258 -4.488,3.015 -9.121,5.472 -13.914,7.347 6.668,4.379 12.195,10.575 16.57,18.602 4.383,8.023 6.566,16.934 6.566,26.738 0,11.879 -2.238,21.731 -6.722,29.547 -4.481,7.817 -10.578,14.074 -18.289,18.766 -7.715,4.687 -16.731,8.019 -27.0472,10.004 -10.3203,1.976 -21.4218,2.968 -33.3007,2.968 -12.5078,0 -23.4532,-0.418 -32.8321,-1.25 C 16.5742,642.855 7.91797,641.816 0,640.566 L 0,416.992 c 10.4258,-1.25 20.1172,-2.285 29.082,-3.125 8.5,-0.781 18.1211,-1.172 28.6914,-1.211"
           inkscape:connector-curvature="0" />
      </g>
    </g>
  </g>
</svg>
